<?xml version="1.0" encoding="utf-8"?>
<!-- Generator: Adobe Illustrator 15.1.0, SVG Export Plug-In . SVG Version: 6.00 Build 0)  -->
<!DOCTYPE svg PUBLIC "-//W3C//DTD SVG 1.0//EN" "http://www.w3.org/TR/2001/REC-SVG-20010904/DTD/svg10.dtd">
<svg version="1.0" id="Layer_1" xmlns="http://www.w3.org/2000/svg" xmlns:xlink="http://www.w3.org/1999/xlink" x="0px" y="0px"
	 width="300.84px" height="300.841px" viewBox="0 0 300.84 300.841" enable-background="new 0 0 300.84 300.841"
	 xml:space="preserve">
<g>
	<circle fill-rule="evenodd" clip-rule="evenodd" fill="#FFFFFF" cx="150.418" cy="150.42" r="150"/>
	<circle fill="none" stroke="#F0801A" stroke-width="0.8404" stroke-miterlimit="22.9256" cx="150.418" cy="150.42" r="150"/>
	<path fill="none" stroke="#215E87" stroke-width="0.5602" stroke-miterlimit="22.9256" d="M150.408,39.576
		c61.221,0,110.852,49.631,110.852,110.852c0,61.223-49.631,110.854-110.852,110.854c-61.225,0-110.853-49.631-110.853-110.854
		C39.556,89.207,89.184,39.576,150.408,39.576z"/>
	<path fill-rule="evenodd" clip-rule="evenodd" fill="#215E87" d="M162.682,88.803c25.563,15.064,40.72,36.749,33.844,48.427
		c-6.876,11.676-33.184,8.929-58.748-6.135c-25.56-15.063-40.716-36.747-33.84-48.425C110.813,70.994,137.118,73.74,162.682,88.803
		 M163.006,88.258c27.578,16.246,44.224,39.132,37.171,51.111c-7.06,11.978-35.146,8.517-62.724-7.73
		c-27.578-16.244-44.223-39.132-37.167-51.111C107.342,68.552,135.428,72.013,163.006,88.258z"/>
	<path fill-rule="evenodd" clip-rule="evenodd" fill="#215E87" d="M138.116,88.609c25.808-14.641,52.161-16.957,58.851-5.172
		c6.688,11.783-8.813,33.212-34.62,47.853c-25.808,14.639-52.161,16.957-58.854,5.172C96.804,124.677,112.31,103.25,138.116,88.609
		 M137.806,88.055c27.836-15.798,55.975-18.806,62.837-6.713c6.861,12.088-10.15,34.705-37.985,50.501
		c-27.839,15.798-55.979,18.806-62.84,6.715C92.959,126.467,109.967,103.853,137.806,88.055z"/>
	<path fill-rule="evenodd" clip-rule="evenodd" fill="#215E87" d="M174.769,110.314c-0.452,29.665-11.805,53.562-25.352,53.362
		c-13.552-0.203-24.174-24.424-23.723-54.092c0.448-29.667,11.802-53.562,25.353-53.362
		C164.594,56.425,175.217,80.646,174.769,110.314 M175.403,110.327c-0.479,32.004-12.144,57.788-26.043,57.582
		c-13.9-0.21-24.78-26.333-24.301-58.338c0.479-32.002,12.14-57.786,26.043-57.58C165,52.2,175.883,78.323,175.403,110.327z"/>
	<circle fill-rule="evenodd" clip-rule="evenodd" fill="#215E87" cx="151.085" cy="54.325" r="4.012"/>
	<circle fill="none" stroke="#215E87" stroke-width="1.0001" stroke-miterlimit="22.9256" cx="151.085" cy="54.325" r="4.012"/>
	<path fill-rule="evenodd" clip-rule="evenodd" fill="#215E87" d="M149.854,161.507c2.22,0,4.016,1.798,4.016,4.012
		c0,2.217-1.796,4.013-4.016,4.013c-2.215,0-4.011-1.795-4.011-4.013C145.843,163.305,147.639,161.507,149.854,161.507z"/>
	<path fill="none" stroke="#215E87" stroke-width="1.0001" stroke-miterlimit="22.9256" d="M149.854,161.507
		c2.22,0,4.016,1.798,4.016,4.012c0,2.217-1.796,4.013-4.016,4.013c-2.215,0-4.011-1.795-4.011-4.013
		C145.843,163.305,147.639,161.507,149.854,161.507z"/>
	<circle fill-rule="evenodd" clip-rule="evenodd" fill="#215E87" cx="197.827" cy="138.705" r="4.012"/>
	<circle fill="none" stroke="#215E87" stroke-width="1.0001" stroke-miterlimit="22.9256" cx="197.827" cy="138.705" r="4.012"/>
	<circle fill-rule="evenodd" clip-rule="evenodd" fill="#215E87" cx="102.869" cy="81.139" r="4.012"/>
	<circle fill="none" stroke="#215E87" stroke-width="1.0001" stroke-miterlimit="22.9256" cx="102.869" cy="81.139" r="4.012"/>
	<circle fill-rule="evenodd" clip-rule="evenodd" fill="#215E87" cx="198.564" cy="82.616" r="4.012"/>
	<circle fill="none" stroke="#215E87" stroke-width="1.0001" stroke-miterlimit="22.9256" cx="198.564" cy="82.616" r="4.012"/>
	<circle fill-rule="evenodd" clip-rule="evenodd" fill="#215E87" cx="102.622" cy="138.213" r="4.012"/>
	<circle fill="none" stroke="#215E87" stroke-width="1.0001" stroke-miterlimit="22.9256" cx="102.622" cy="138.213" r="4.012"/>
	<polygon fill-rule="evenodd" clip-rule="evenodd" fill="#215E87" points="150.422,93.274 149.847,104.052 150.327,110.034 
		150.934,104.052 	"/>
	<polygon fill-rule="evenodd" clip-rule="evenodd" fill="#215E87" points="146.136,93.85 148.344,104.405 150.358,110.066 
		149.398,104.118 	"/>
	<polygon fill-rule="evenodd" clip-rule="evenodd" fill="#215E87" points="142.106,95.513 146.968,105.141 150.391,110.098 
		147.928,104.598 	"/>
	<polygon fill-rule="evenodd" clip-rule="evenodd" fill="#215E87" points="138.652,98.136 145.85,106.196 150.422,110.098 
		146.615,105.428 	"/>
	<polygon fill-rule="evenodd" clip-rule="evenodd" fill="#215E87" points="136.028,101.59 145.049,107.508 150.485,110.098 
		145.592,106.548 	"/>
	<polygon fill-rule="evenodd" clip-rule="evenodd" fill="#215E87" points="134.366,105.621 144.601,108.979 150.518,110.066 
		144.891,107.923 	"/>
	<polygon fill-rule="evenodd" clip-rule="evenodd" fill="#215E87" points="133.791,109.905 144.569,110.514 150.549,110.034 
		144.569,109.427 	"/>
	<polygon fill-rule="evenodd" clip-rule="evenodd" fill="#215E87" points="134.366,114.224 144.922,112.017 150.581,110.002 
		144.633,110.962 	"/>
	<polygon fill-rule="evenodd" clip-rule="evenodd" fill="#215E87" points="136.028,118.254 145.656,113.393 150.616,109.971 
		145.112,112.433 	"/>
	<polygon fill-rule="evenodd" clip-rule="evenodd" fill="#215E87" points="138.652,121.708 146.714,114.513 150.616,109.905 
		145.945,113.744 	"/>
	<polygon fill-rule="evenodd" clip-rule="evenodd" fill="#215E87" points="142.106,124.331 148.023,115.312 150.616,109.874 
		147.063,114.769 	"/>
	<polygon fill-rule="evenodd" clip-rule="evenodd" fill="#215E87" points="146.136,125.995 149.494,115.76 150.581,109.842 
		148.439,115.471 	"/>
	<polygon fill-rule="evenodd" clip-rule="evenodd" fill="#215E87" points="150.422,126.57 151.032,115.792 150.549,109.81 
		149.942,115.792 	"/>
	<polygon fill-rule="evenodd" clip-rule="evenodd" fill="#215E87" points="154.74,125.995 152.535,115.439 150.518,109.778 
		151.477,115.728 	"/>
	<polygon fill-rule="evenodd" clip-rule="evenodd" fill="#215E87" points="158.77,124.331 153.908,114.703 150.485,109.747 
		152.948,115.247 	"/>
	<polygon fill-rule="evenodd" clip-rule="evenodd" fill="#215E87" points="162.223,121.708 155.029,113.648 150.422,109.747 
		154.261,114.416 	"/>
	<polygon fill-rule="evenodd" clip-rule="evenodd" fill="#215E87" points="164.848,118.254 155.827,112.338 150.391,109.747 
		155.283,113.296 	"/>
	<polygon fill-rule="evenodd" clip-rule="evenodd" fill="#215E87" points="166.513,114.224 156.275,110.865 150.358,109.778 
		155.989,111.921 	"/>
	<polygon fill-rule="evenodd" clip-rule="evenodd" fill="#215E87" points="167.088,109.937 156.307,109.33 150.327,109.81 
		156.307,110.418 	"/>
	<polygon fill-rule="evenodd" clip-rule="evenodd" fill="#215E87" points="166.513,105.621 155.957,107.827 150.295,109.842 
		156.243,108.882 	"/>
	<polygon fill-rule="evenodd" clip-rule="evenodd" fill="#215E87" points="164.848,101.59 155.22,106.452 150.264,109.874 
		155.764,107.411 	"/>
	<polygon fill-rule="evenodd" clip-rule="evenodd" fill="#215E87" points="162.223,98.136 154.165,105.333 150.264,109.937 
		154.931,106.101 	"/>
	<polygon fill-rule="evenodd" clip-rule="evenodd" fill="#215E87" points="158.77,95.513 152.853,104.532 150.264,109.971 
		153.813,105.076 	"/>
	<polygon fill-rule="evenodd" clip-rule="evenodd" fill="#215E87" points="154.74,93.85 151.382,104.084 150.295,110.002 
		152.437,104.374 	"/>
	<path fill-rule="evenodd" clip-rule="evenodd" fill="#215E87" d="M283.112,179.226l-16.659-5.503l0.448-4.163l17.474-2.032
		l-0.359,3.339l-4.379,0.385l-0.384,3.568l4.201,1.24L283.112,179.226z M276.744,174.07l0.282-2.639l-7.3,0.594L276.744,174.07z
		 M279.855,190.948l-16.719-3.766l0.741-3.124l12.697-1.616l-11.713-2.549l0.681-2.872l16.719,3.766l-0.733,3.101l-12.726,1.644
		l11.73,2.556L279.855,190.948z M276.648,199.87l-13.551-4.553l-1.199,3.392l-2.674-0.898l3.436-9.737l2.675,0.898l-1.196,3.394
		l13.548,4.553L276.648,199.87z M270.846,213.31l-14.102-10.257l1.743-3.824l17.262,3.335l-1.4,3.068l-4.283-0.956l-1.495,3.279
		l3.602,2.446L270.846,213.31z M266.418,206.485l1.107-2.425l-7.13-1.635L266.418,206.485z M265.786,221.83l-14.859-8.372
		l2.776-4.688c0.847-1.431,1.785-2.277,2.812-2.535c1.026-0.257,2.286,0.032,3.782,0.875c1.464,0.826,2.356,1.774,2.682,2.847
		c0.32,1.074,0.073,2.297-0.738,3.672l-1.164,1.967l6.301,3.551L265.786,221.83z M258.978,214.513l0.667-1.129
		c0.497-0.841,0.677-1.524,0.539-2.055c-0.138-0.528-0.613-1.025-1.432-1.485c-0.822-0.464-1.482-0.63-1.986-0.498
		c-0.505,0.13-1.013,0.633-1.528,1.504l-0.691,1.166L258.978,214.513z M257.23,233.922l-5.732-4.371l-10.56-2.479l2.181-2.722
		l6.682,1.877l-3.507-5.846l2.121-2.646l5.065,9.338l5.733,4.371L257.23,233.922z M252.461,239.688l-1.605-1.013
		c0.424,0.764,0.59,1.464,0.494,2.113c-0.092,0.647-0.458,1.346-1.097,2.09c-1.157,1.342-2.491,1.861-4.001,1.556
		c-1.51-0.303-3.658-1.594-6.435-3.868c-1.295-1.06-2.279-1.978-2.946-2.749c-0.674-0.772-1.101-1.471-1.291-2.097
		c-0.236-0.758-0.24-1.521-0.021-2.274c0.223-0.753,0.688-1.542,1.387-2.356c1.186-1.378,2.389-2.119,3.619-2.228
		c1.225-0.106,2.537,0.415,3.948,1.566l0.332,0.271l-1.92,2.231l-0.138-0.113c-0.783-0.64-1.502-0.986-2.151-1.028
		c-0.643-0.039-1.214,0.222-1.697,0.789c-0.6,0.693-0.733,1.392-0.405,2.094c0.324,0.706,1.665,2.018,4.011,3.941
		c1.855,1.519,3.204,2.413,4.04,2.681c0.836,0.27,1.527,0.084,2.078-0.556c0.539-0.631,0.709-1.265,0.497-1.896
		c-0.212-0.635-0.851-1.385-1.905-2.25l-0.451-0.371l-1.426,1.658l-2.103-1.72l3.404-3.957l7.169,5.869L252.461,239.688z
		 M231.093,248.54c-1.192-1.339-2.085-2.464-2.671-3.375c-0.582-0.912-0.918-1.685-1.006-2.323
		c-0.134-0.894-0.053-1.683,0.247-2.369c0.304-0.689,0.882-1.394,1.732-2.118c0.851-0.722,1.647-1.179,2.389-1.376
		c0.737-0.194,1.556-0.167,2.448,0.083c0.642,0.185,1.383,0.621,2.223,1.314c0.836,0.691,1.849,1.702,3.037,3.04
		c1.186,1.328,2.071,2.446,2.656,3.356c0.583,0.911,0.929,1.687,1.031,2.334c0.13,0.898,0.042,1.688-0.258,2.375
		c-0.304,0.691-0.879,1.395-1.729,2.117c-0.854,0.723-1.648,1.182-2.389,1.377c-0.741,0.196-1.553,0.166-2.441-0.09
		c-0.635-0.171-1.373-0.604-2.216-1.295S232.285,249.879,231.093,248.54z M233.555,246.452c1.853,2.078,3.14,3.281,3.87,3.607
		c0.73,0.328,1.429,0.208,2.103-0.361c0.656-0.559,0.879-1.208,0.649-1.946c-0.226-0.732-1.273-2.148-3.146-4.25
		c-1.87-2.099-3.169-3.314-3.892-3.639c-0.724-0.326-1.418-0.211-2.085,0.355c-0.667,0.566-0.882,1.221-0.649,1.965
		C230.634,242.927,231.686,244.351,233.555,246.452z M228.979,260.909l-10.8-13.013l2.487-1.963l8.961,10.797l4.484-3.542
		l1.838,2.216L228.979,260.909z M212.769,261.096c-0.992-1.489-1.712-2.726-2.163-3.706c-0.448-0.981-0.67-1.792-0.663-2.437
		c-0.007-0.903,0.187-1.672,0.582-2.313c0.398-0.642,1.069-1.261,2.018-1.863c0.942-0.598,1.796-0.943,2.562-1.039
		c0.759-0.09,1.563,0.047,2.41,0.415c0.613,0.273,1.283,0.804,2.014,1.605c0.73,0.797,1.588,1.937,2.579,3.42
		c0.981,1.478,1.7,2.706,2.148,3.687c0.448,0.981,0.678,1.796,0.688,2.45c0,0.907-0.201,1.678-0.593,2.318
		c-0.398,0.641-1.072,1.261-2.019,1.859c-0.945,0.602-1.799,0.947-2.561,1.041c-0.759,0.092-1.56-0.047-2.402-0.419
		c-0.607-0.258-1.274-0.785-2.012-1.586C214.62,263.731,213.76,262.583,212.769,261.096z M215.506,259.362
		c1.535,2.309,2.643,3.676,3.316,4.098c0.678,0.423,1.387,0.398,2.135-0.073c0.729-0.465,1.04-1.078,0.92-1.838
		c-0.119-0.758-0.956-2.302-2.508-4.636c-1.556-2.333-2.667-3.713-3.338-4.135c-0.67-0.42-1.372-0.398-2.113,0.069
		c-0.74,0.471-1.048,1.09-0.928,1.857C213.114,255.474,213.95,257.026,215.506,259.362z M205.574,274.074l-7.789-14.918l2.928-1.457
		l9.427,8.453l-5.524-10.393l2.691-1.337l7.79,14.918l-2.907,1.447l-9.473-8.458l5.535,10.415L205.574,274.074z M192.888,278.863
		l-6.428-15.525l2.946-1.161l2.522,6.089l4.057-1.598l-2.522-6.091l2.946-1.161l6.428,15.525l-2.942,1.161l-2.914-7.037l-4.061,1.6
		l2.914,7.037L192.888,278.863z M185.536,274.546l2.984-0.834c0.021,0.071,0.057,0.169,0.103,0.304
		c0.046,0.137,0.081,0.24,0.105,0.317c0.547,1.857,0.551,3.355,0.011,4.482c-0.536,1.127-1.634,1.921-3.292,2.385
		c-0.786,0.22-1.488,0.309-2.109,0.27c-0.624-0.041-1.199-0.215-1.729-0.521c-0.72-0.4-1.341-1.057-1.853-1.967
		c-0.519-0.914-1.129-2.579-1.842-5.004c-0.49-1.66-0.808-2.996-0.959-4.015c-0.152-1.016-0.159-1.801-0.015-2.364
		c0.229-0.861,0.621-1.55,1.182-2.065c0.558-0.515,1.349-0.914,2.368-1.2c1.672-0.467,3.009-0.382,4.021,0.254
		c1.009,0.638,1.796,1.898,2.354,3.776l-2.975,0.833l-0.112-0.387c-0.258-0.873-0.593-1.481-1.01-1.829
		c-0.416-0.348-0.917-0.439-1.51-0.273c-0.737,0.207-1.15,0.644-1.242,1.311c-0.095,0.667,0.251,2.341,1.038,5.021
		c0.854,2.9,1.503,4.625,1.947,5.177c0.44,0.554,1.033,0.729,1.771,0.524c0.685-0.192,1.091-0.572,1.221-1.138
		c0.127-0.568-0.007-1.512-0.395-2.835L185.536,274.546z M169.625,284.024l-3.274-16.437l8.654-1.642l0.543,2.732l-5.535,1.049
		l0.755,3.8l5.154-0.978l0.519,2.605l-5.15,0.978l0.899,4.523l5.666-1.075l0.554,2.777L169.625,284.024z M161.08,284.854
		l-1.249-13.93l-3.662,0.314l-0.247-2.75l10.514-0.898l0.247,2.75l-3.666,0.312l1.249,13.93L161.08,284.854z M141.793,285.012
		l0.6-16.733l8.961,0.305l-0.099,2.738l-5.765-0.196l-0.142,3.953l5.444,0.185l-0.1,2.674l-5.439-0.185l-0.265,7.368
		L141.793,285.012z M129.096,275.227c0.219-1.76,0.479-3.161,0.783-4.194c0.303-1.032,0.667-1.794,1.097-2.283
		c0.59-0.697,1.246-1.164,1.969-1.406c0.73-0.242,1.651-0.296,2.77-0.163c1.118,0.134,2.001,0.404,2.649,0.812
		c0.639,0.406,1.168,1.014,1.573,1.829c0.29,0.593,0.452,1.42,0.487,2.493c0.031,1.069-0.06,2.479-0.282,4.235
		c-0.219,1.751-0.477,3.14-0.779,4.173c-0.304,1.032-0.664,1.801-1.087,2.308c-0.6,0.695-1.26,1.161-1.982,1.404
		c-0.728,0.242-1.651,0.296-2.77,0.163c-1.119-0.134-2.001-0.406-2.646-0.812s-1.164-1.014-1.563-1.828
		c-0.297-0.579-0.463-1.402-0.498-2.477C128.778,278.408,128.873,276.988,129.096,275.227z M132.331,275.615
		c-0.343,2.732-0.396,4.474-0.155,5.22c0.236,0.75,0.797,1.177,1.679,1.282c0.872,0.104,1.511-0.171,1.919-0.829
		c0.406-0.654,0.783-2.362,1.133-5.126c0.346-2.761,0.402-4.516,0.166-5.258s-0.787-1.168-1.665-1.272
		c-0.879-0.106-1.521,0.176-1.934,0.841S132.68,272.853,132.331,275.615z M112.027,279.789l4.73-16.095l8.475,2.371l-0.787,2.674
		l-5.422-1.515l-1.094,3.72l5.045,1.411l-0.748,2.551l-5.045-1.411l-1.302,4.429l5.55,1.554l-0.801,2.718L112.027,279.789z
		 M102.833,276.914l4.904-13.14l-3.457-1.228l0.966-2.595l9.918,3.522l-0.967,2.595l-3.454-1.228l-4.904,13.14L102.833,276.914z
		 M95.259,255.25l2.896,1.318l-4.886,10.228c-0.558,1.168-0.791,2.027-0.699,2.577s0.516,0.997,1.264,1.335
		c0.74,0.337,1.354,0.363,1.841,0.074c0.487-0.291,1.013-1.034,1.581-2.223l4.868-10.186l2.858,1.298l-5.007,10.475
		c-0.486,1.02-0.899,1.736-1.241,2.154c-0.343,0.415-0.741,0.736-1.183,0.965c-0.674,0.344-1.414,0.49-2.226,0.443
		c-0.815-0.046-1.697-0.282-2.636-0.711c-1.781-0.81-2.851-1.755-3.221-2.84c-0.374-1.085-0.113-2.562,0.783-4.435L95.259,255.25z
		 M80.625,266.217l7.381-11.986l-3.15-1.849l1.457-2.365l9.045,5.304l-1.457,2.365l-3.154-1.849l-7.38,11.986L80.625,266.217z
		 M73.488,261.754l10.086-13.547l2.586,1.836l-10.086,13.545L73.488,261.754z M66.665,256.803l8.819-11.018l-2.896-2.21l1.743-2.175
		l8.315,6.34l-1.743,2.175l-2.896-2.208l-8.823,11.018L66.665,256.803z M59.518,242.537l2.3,2.168l-0.766,0.774
		c-0.733,0.739-1.136,1.333-1.21,1.778c-0.081,0.448,0.116,0.891,0.582,1.33c0.486,0.458,0.974,0.686,1.468,0.686
		c0.49,0.001,0.967-0.235,1.433-0.706c0.355-0.36,0.571-0.75,0.648-1.175c0.081-0.422,0.025-1.117-0.158-2.076l-0.371-1.923
		c-0.335-1.646-0.42-2.819-0.25-3.528c0.166-0.709,0.586-1.401,1.256-2.08c1.002-1.012,2.096-1.515,3.277-1.51
		s2.311,0.517,3.391,1.535c1.143,1.078,1.718,2.207,1.725,3.394c0.008,1.184-0.557,2.346-1.686,3.487
		c-0.113,0.116-0.201,0.203-0.265,0.261c-0.067,0.062-0.124,0.111-0.177,0.154l-2.181-2.055l0.317-0.319
		c0.643-0.651,0.995-1.222,1.056-1.709c0.056-0.485-0.163-0.969-0.663-1.439c-0.371-0.348-0.766-0.515-1.186-0.503
		s-0.815,0.205-1.186,0.581c-0.501,0.504-0.582,1.512-0.243,3.015c0.003,0.016,0.007,0.028,0.007,0.039l0.438,2.032
		c0.324,1.436,0.392,2.561,0.201,3.381c-0.198,0.822-0.688,1.634-1.482,2.436c-1.083,1.096-2.24,1.639-3.471,1.626
		c-1.229-0.007-2.438-0.573-3.631-1.699c-1.242-1.167-1.855-2.351-1.842-3.545c0.015-1.2,0.653-2.439,1.923-3.724
		c0.131-0.132,0.367-0.348,0.695-0.639L59.518,242.537z M46.407,237.291l13.148-10.762l2.11,2.457l-6.319,10.866l9.138-7.592
		l1.94,2.258L53.279,245.28l-2.099-2.439l6.315-10.905l-9.152,7.604L46.407,237.291z M42.537,232.648l13.522-10.311l1.969,2.461
		l-13.522,10.309L42.537,232.648z M32.186,216.729l14.86-8.374l1.644,2.776l-8.156,9.631l10.348-5.929l1.51,2.552l-14.859,8.372
		l-1.634-2.757l8.16-9.672l-10.368,5.941L32.186,216.729z M26.136,204.541l17.248-3.364l1.743,3.824l-14.091,10.286l-1.397-3.067
		l3.596-2.47l-1.496-3.277l-4.276,0.976L26.136,204.541z M34.292,205.897l1.108,2.426l6.015-4.077L34.292,205.897z M24.34,200.124
		l16.021-6.001l1.144,2.914l-16.018,6.001L24.34,200.124z M20.364,187.7l16.574-4.332l1.33,4.838
		c0.271,0.99,0.401,1.796,0.392,2.426c-0.015,0.629-0.159,1.187-0.445,1.665c-0.409,0.718-1.016,1.304-1.816,1.766
		c-0.801,0.458-2.109,0.928-3.938,1.406c-2.35,0.614-4.036,0.97-5.052,1.064c-1.017,0.092-1.919,0.032-2.706-0.173
		c-0.783-0.194-1.4-0.586-1.852-1.177c-0.448-0.593-0.9-1.704-1.348-3.335L20.364,187.7z M23.616,190.013l0.367,1.334
		c0.188,0.681,0.367,1.141,0.544,1.39c0.172,0.247,0.405,0.417,0.694,0.514c0.508,0.167,1.153,0.213,1.937,0.136
		c0.78-0.078,2.001-0.33,3.648-0.76c1.605-0.42,2.759-0.799,3.45-1.131c0.691-0.33,1.182-0.712,1.461-1.145
		c0.141-0.226,0.212-0.485,0.208-0.781c0-0.296-0.081-0.739-0.243-1.328l-0.354-1.29L23.616,190.013z M17.361,174.814l16.899-2.909
		l0.567,3.159l-11.039,6.326l11.802-2.117l0.525,2.902l-16.899,2.907l-0.567-3.134l11.057-6.365l-11.822,2.121L17.361,174.814z
		 M16.621,168.815l17.064-1.75l0.335,3.104l-17.064,1.75L16.621,168.815z"/>
	<path fill="#215E87" d="M280.198,128.776l-0.663-3.337l-15.044,2.872l1.023-2.071l13.664-2.609l-0.42-2.122l1.591-1.602
		l1.446,7.301L280.198,128.776z M278.949,121.327l-0.953-3.267l-14.729,4.149l0.832-2.152l13.378-3.768l-0.603-2.078l1.442-1.732
		l2.085,7.149L278.949,121.327z M271.067,117.125l-1.923-5.493l-1.33,0.45c-0.977,0.33-1.517,0.212-1.611-0.354
		c-0.061-0.455,0.222-1.148,0.836-2.082c0.613-0.931,1.168-1.482,1.668-1.651c0.614-0.208,1.084,0.146,1.401,1.062l2.632,7.502
		L271.067,117.125z M277.414,115.428l-3.545-10.115l1.361-1.772l3.524,10.047L277.414,115.428z M273.643,102.281
		c-0.154,0.189-0.313,0.213-0.473,0.074c-0.154-0.118-0.176-0.273-0.077-0.467c0.05-0.071,0.142-0.118,0.271-0.145
		c0.131-0.028,0.223-0.012,0.271,0.044C273.816,101.971,273.819,102.137,273.643,102.281z M273.478,103.813l-1.919-4.045
		l-3.705,1.697c-0.356,0.084-0.639,0.109-0.84,0.07c-0.67-0.109-1.27-0.536-1.81-1.281c-1.171-1.575-2.254-2.628-3.256-3.159
		c-0.815-0.434-1.542-0.506-2.177-0.213c-0.24,0.109-0.445,0.249-0.618,0.42c-0.173,0.167-0.346,0.398-0.525,0.689
		c-0.596,1.055-0.54,2.318,0.162,3.794c0.109,0.236,0.24,0.477,0.382,0.725c0.145,0.247,0.317,0.492,0.518,0.739
		c0.487,0.637,1.111,1.263,1.867,1.88c0.243,0.229,0.6,0.494,1.068,0.801l-1.337,1.706c-0.586-0.409-1.037-0.76-1.358-1.058
		c-1.048-0.953-1.827-1.963-2.335-3.034l-0.244-0.513c-0.07-0.15-0.12-0.258-0.151-0.321c-0.296-0.905-0.342-1.953-0.134-3.144
		c0.271-1.557,0.913-2.828,1.937-3.819c0.219-0.205,0.479-0.377,0.787-0.517c0.769-0.353,1.563-0.441,2.385-0.272
		c1.072,0.238,1.982,0.851,2.727,1.838c0.748,0.988,1.383,1.699,1.909,2.134c0.307,0.252,0.635,0.427,0.978,0.531l2.978-1.363
		l-3.489-7.353l1.168-1.903l6.216,13.1L273.478,103.813z M267.049,90.327l-1.731-2.946l-13.269,7.529l0.278-2.286l12.055-6.837
		l-1.101-1.872l0.974-2.025l3.789,6.442L267.049,90.327z M256.663,89.448c-0.317-0.136-0.564-0.271-0.744-0.413
		c-0.621-0.42-1.108-0.898-1.461-1.432c-0.105-0.157-0.204-0.305-0.296-0.445c-0.1-0.277-0.174-0.479-0.233-0.612
		c-0.392-1.244-0.335-2.461,0.166-3.653c0.169-0.39,0.466-0.875,0.886-1.454l4.84-3.087l-0.963-1.455l0.864-2.073l5.031,7.606
		l-0.868,2.071l-3.041-4.604l-5.052,3.221c-0.424,0.356-0.717,0.653-0.872,0.895c-0.462,0.774-0.42,1.577,0.131,2.408
		c0.328,0.496,1.051,0.921,2.173,1.275c0.36,0.107,0.899,0.229,1.616,0.363L256.663,89.448z M250.383,65.771l-2.402-2.447
		l-11.024,10.457l-0.293-2.284l10.013-9.498l-1.528-1.556l0.448-2.196l5.26,5.352L250.383,65.771z M241.74,65.947l-4.322-3.963
		l-0.96,1.012c-0.705,0.741-1.234,0.886-1.595,0.429c-0.268-0.374-0.353-1.115-0.254-2.221c0.096-1.106,0.325-1.849,0.685-2.229
		c0.444-0.466,1.023-0.369,1.747,0.291l5.905,5.412L241.74,65.947z M246.534,61.521l-7.966-7.296l0.356-2.192l7.913,7.248
		L246.534,61.521z M238.564,54.213l-2.653-2.187l-9.85,11.533l-0.532-2.24l8.946-10.477l-1.683-1.388l0.208-2.229l5.804,4.78
		L238.564,54.213z M233.135,49.785l-2.727-2.094l-9.434,11.865l-0.61-2.223l8.565-10.776l-1.732-1.33l0.131-2.236l5.969,4.581
		L233.135,49.785z M222.77,43.627c0.328-0.521,0.487-1.078,0.466-1.674c-0.035-0.746-0.377-1.319-1.03-1.72
		c-0.162-0.101-0.392-0.207-0.688-0.319c-0.3-0.113-0.698-0.053-1.203,0.182c-0.501,0.235-0.914,0.602-1.231,1.104
		c-0.37,0.58-0.508,1.108-0.413,1.584c0.054,0.45,0.318,0.974,0.787,1.568c0.145,0.173,0.371,0.421,0.674,0.748
		c0.438-0.067,0.77-0.141,0.995-0.226C221.863,44.604,222.41,44.188,222.77,43.627z M222.583,53.079
		c-0.568-0.042-1.02-0.095-1.348-0.157c-1.14-0.171-1.916-0.354-2.325-0.552c-0.412-0.198-0.733-0.365-0.956-0.504
		c-0.716-0.438-1.315-1.028-1.806-1.775c-0.487-0.746-0.805-1.476-0.946-2.189c-0.141-0.714-0.197-1.494-0.169-2.341
		c0.004-0.136,0.014-0.311,0.031-0.521l1.94,0.228c0.601,0.037,1.203,0.044,1.813,0.028c0.085-0.003,0.216-0.007,0.389-0.012
		c-0.212-0.157-0.389-0.305-0.526-0.446c-0.37-0.397-0.709-0.875-1.016-1.441c-0.307-0.565-0.448-1.145-0.424-1.741
		c0.025-0.598,0.177-1.117,0.459-1.558c0.332-0.521,0.772-0.889,1.323-1.109c0.55-0.219,1.14-0.279,1.774-0.184
		c0.632,0.097,1.203,0.302,1.715,0.614c0.712,0.438,1.217,0.956,1.517,1.558c0.717,1.415,0.691,2.722-0.07,3.925
		c-0.522,0.82-1.362,1.422-2.509,1.803c-0.868,0.247-2.024,0.372-3.472,0.376c-0.473-0.014-1.118-0.048-1.933-0.103
		c0.06,0.483,0.138,0.852,0.232,1.103c0.308,0.857,0.805,1.5,1.499,1.924c0.223,0.138,0.477,0.25,0.759,0.341
		c1.295,0.46,2.59,0.698,3.885,0.714c0.42,0.007,0.928-0.03,1.517-0.113L222.583,53.079z M218.374,39.087l-5.465-2.734l-2.424,4.671
		c0.106,0.423,0.223,0.746,0.35,0.968c0.413,0.764,1.016,1.344,1.81,1.741c0.663,0.332,1.394,0.458,2.188,0.381
		c0.261-0.03,0.593-0.103,1.002-0.215l-1.111,2.147c-0.141,0.009-0.254,0.019-0.339,0.028c-0.624,0.007-1.214-0.129-1.771-0.408
		c-0.258-0.13-0.52-0.3-0.787-0.513c-0.632-0.503-1.196-1.208-1.693-2.121c-0.148-0.286-0.324-0.679-0.522-1.176
		c-0.151,0.136-0.271,0.236-0.356,0.3c-0.293,0.197-0.589,0.353-0.893,0.467c-0.451,0.145-0.91,0.221-1.372,0.228
		c-0.159-0.001-0.37-0.014-0.628-0.035l1.75,7.474l-1.225,0.228l-1.771-7.253c-0.19-0.678-0.308-1.2-0.36-1.57
		c-0.184-1.152-0.138-1.991,0.135-2.517c0.109-0.211,0.278-0.384,0.511-0.521c0.233-0.136,0.466-0.143,0.702-0.026
		c0.216,0.108,0.536,0.549,0.974,1.323c0.201,0.338,0.35,0.52,0.448,0.542c0.396,0.067,0.744-0.036,1.048-0.309
		c0.304-0.272,0.544-0.577,0.716-0.914l1.951-3.755l-4.883-2.445l-0.307-2.219l12.08,6.045L218.374,39.087z M206.689,26.623
		l-2.653,0.974l-0.987-2.526l2.667-1.005L206.689,26.623z M205.145,32.592l-3.232-1.219l-5.489,14.055l-1.249-1.949l4.989-12.766
		l-2.054-0.774l-0.54-2.177l7.07,2.665L205.145,32.592z M199.485,30.239l-5.832-1.859l-1.647,4.985
		c0.17,0.402,0.336,0.704,0.498,0.905c0.529,0.689,1.217,1.169,2.063,1.439c0.706,0.226,1.45,0.24,2.223,0.041
		c0.251-0.069,0.568-0.19,0.956-0.365l-0.759,2.29c-0.138,0.032-0.247,0.058-0.331,0.081c-0.614,0.101-1.218,0.059-1.813-0.132
		c-0.275-0.086-0.562-0.215-0.857-0.386c-0.702-0.397-1.372-1.009-2.011-1.833c-0.19-0.259-0.427-0.621-0.702-1.082
		c-0.131,0.157-0.229,0.275-0.308,0.349c-0.257,0.242-0.525,0.441-0.804,0.6c-0.424,0.211-0.864,0.358-1.319,0.436
		c-0.159,0.023-0.371,0.044-0.628,0.062l2.917,7.114l-1.171,0.413l-2.903-6.892c-0.293-0.64-0.494-1.14-0.604-1.498
		c-0.367-1.109-0.455-1.944-0.271-2.507c0.074-0.224,0.215-0.421,0.423-0.591s0.438-0.215,0.688-0.134
		c0.229,0.074,0.621,0.458,1.171,1.157c0.254,0.304,0.431,0.459,0.529,0.466c0.405,0.005,0.733-0.15,0.988-0.466
		c0.257-0.315,0.444-0.654,0.564-1.012l1.326-4.01l-5.214-1.663L186.002,24l12.895,4.115L199.485,30.239z M172.641,21.811
		l-3.436-0.413l-1.627,16.042l-1.683-1.63l1.45-14.638l-2.074-0.25l-1.027-1.979l3.561,0.45c0.07-0.18,0.084-0.42,0.042-0.718
		c-0.293-1.344-0.586-2.524-1.037-3.544c-0.455-1.018-1.101-1.577-1.934-1.678c-0.691-0.084-1.273,0.203-1.743,0.861
		c-0.119,0.175-0.219,0.383-0.296,0.625c-0.077,0.24-0.131,0.466-0.159,0.676c-0.063,0.517-0.031,1.042,0.096,1.582
		c0.024,0.169,0.105,0.406,0.236,0.708l-0.822-0.101c-0.138-0.445-0.239-0.803-0.303-1.071c-0.201-0.905-0.258-1.709-0.17-2.411
		c0.078-0.633,0.271-1.217,0.582-1.752c0.519-0.864,1.365-1.226,2.533-1.085c0.812,0.097,1.479,0.475,2,1.134
		c0.463,0.579,0.861,1.364,1.196,2.355c0.265,0.794,0.483,1.653,0.66,2.579c0.158,0.662,0.254,1.296,0.289,1.99
		c0.018,0.24-0.011-0.427-0.011-0.023l2.653,0.314L172.641,21.811z M157.7,20.227c0.103,0.22,0.057,0.37-0.142,0.451
		c-0.176,0.083-0.328,0.037-0.462-0.137c-0.042-0.074-0.046-0.175-0.014-0.304c0.035-0.127,0.088-0.201,0.158-0.219
		C157.488,19.939,157.644,20.009,157.7,20.227z M152.316,27.654c-0.37-0.538-0.702-0.933-0.995-1.187
		c-0.903-0.789-1.958-1.171-3.157-1.152c-0.889,0.016-1.602,0.247-2.135,0.693c-0.532,0.446-0.793,0.999-0.783,1.66
		c0.004,0.118,0.028,0.272,0.082,0.459c0.18,0.589,0.486,1.02,0.924,1.296c0.438,0.275,0.935,0.409,1.485,0.398
		c0.36-0.005,0.632-0.028,0.812-0.067c0.18-0.039,0.448-0.13,0.808-0.279c0.812-0.321,1.535-0.712,2.177-1.171
		C151.748,28.159,152.01,27.942,152.316,27.654z M163.987,20.794l-9.914,0.169l0.085,4.745c0.477-0.268,0.843-0.462,1.107-0.586
		c0.833-0.392,1.489-0.591,1.973-0.6c1.079-0.018,2.021,0.438,2.818,1.369c0.798,0.93,1.207,2.009,1.229,3.239l0.007,0.388
		c-0.057,0.829-0.389,1.78-0.995,2.853c-0.184,0.358-0.49,0.822-0.91,1.397l-1.542-1.356c0.282-0.358,0.494-0.646,0.635-0.861
		c0.516-0.741,0.864-1.314,1.052-1.718c0.278-0.617,0.413-1.175,0.402-1.67c-0.011-0.568-0.197-1.027-0.564-1.373
		c-0.367-0.349-0.96-0.515-1.774-0.502c-0.601,0.01-1.341,0.307-2.223,0.889c-0.282,0.194-0.674,0.496-1.172,0.907l0.142,7.968
		l-1.901-1.35l-0.085-4.78c-0.427,0.338-0.783,0.592-1.069,0.762c-0.903,0.537-1.75,0.81-2.544,0.824
		c-0.963,0.016-1.83-0.242-2.61-0.771c-0.779-0.529-1.379-1.288-1.81-2.272c-0.226-0.54-0.342-1.104-0.353-1.694
		c-0.015-0.945,0.247-1.716,0.79-2.318c0.635-0.695,1.566-1.053,2.794-1.074c1.08-0.019,2.194,0.446,3.341,1.396
		c0.363,0.3,0.833,0.789,1.397,1.464l-0.096-5.242l-9.624,0.164l-1.33-1.819l21.45-0.369L163.987,20.794z M142.633,21.391
		l-3.454,0.236l1.072,15.019l-1.972-1.249l-0.971-13.641l-2.194,0.15l-1.425-1.748l7.557-0.519L142.633,21.391z M135.361,21.705
		l-5.222,0.903l1.454,8.093c0.06,0.327-0.046,0.633-0.311,0.917c-0.269,0.286-0.586,0.413-0.956,0.381
		c-0.297-0.019-0.851-0.379-1.658-1.08c-0.812-0.698-1.26-1.161-1.348-1.383c-0.152-0.43-0.103-0.727,0.151-0.891
		c0.25-0.164,0.6-0.284,1.052-0.362c0.473-0.083,0.698-0.182,0.677-0.298l-0.906-5.058l-3.408,0.589l-1.57-1.598l10.514-1.82
		L135.361,21.705z M129.346,19.249c-0.504-0.522-0.935-0.928-1.295-1.215c-1.132-0.921-2.3-1.595-3.496-2.021
		c-0.374-0.139-0.758-0.221-1.157-0.247c-0.401-0.024-0.847,0.014-1.34,0.117c-0.988,0.206-1.719,0.684-2.194,1.436
		c-0.297,0.45-0.483,0.903-0.555,1.366c-0.07,0.462-0.06,0.912,0.035,1.351c0.135,0.623,0.428,1.238,0.875,1.845
		c0.142,0.187,0.354,0.421,0.636,0.7l2.995-0.626l1.626,1.543l-3.387,0.709l3.193,14.759l-2.135-1.004l-2.893-13.373l-2.152,0.448
		l-1.623-1.543l3.701-0.772c-0.47-0.362-0.829-0.672-1.083-0.933c-0.791-0.801-1.273-1.618-1.454-2.449
		c-0.158-0.739-0.105-1.457,0.162-2.152c0.269-0.697,0.674-1.252,1.225-1.668c0.547-0.417,1.21-0.706,1.986-0.868
		c1.059-0.22,2.057-0.152,2.995,0.208c1.146,0.413,2.346,1.08,3.602,2c0.382,0.282,0.875,0.686,1.479,1.212L129.346,19.249z
		 M114.313,24.199l-0.798,0.212c-0.246-0.353-0.434-0.633-0.567-0.841c-0.455-0.664-0.899-1.205-1.337-1.628
		c-0.607-0.575-1.122-1-1.546-1.281c-0.515-0.33-1.058-0.552-1.641-0.668c-0.32-0.086-0.624-0.111-0.913-0.072
		c-0.289,0.041-0.607,0.106-0.956,0.198l-1.563-2.044c0.389-0.129,0.748-0.198,1.08-0.212c0.331-0.014,0.769,0.055,1.309,0.207
		c0.755,0.217,1.468,0.554,2.142,1.012c0.554,0.392,1.277,1.034,2.166,1.923c0.663,0.609,1.376,1.436,2.135,2.482
		C113.946,23.673,114.112,23.91,114.313,24.199z M117.855,25.077l-3.345,0.88l3.969,14.542l-2.177-0.857l-3.602-13.209l-2.124,0.56
		l-1.739-1.448l7.313-1.926L117.855,25.077z M107.963,37.333l-3.15-8.068l-3.771,1.422l0.854,2.182
		c0.036,0.088,0.1,0.254,0.194,0.498c0.096,0.242,0.116,0.462,0.063,0.658c-0.053,0.197-0.232,0.392-0.543,0.585
		c-0.046,0.016-0.109,0.053-0.19,0.107l-4.071,1.537c-0.223,0.159-0.381,0.282-0.477,0.369c-0.289,0.312-0.324,0.616-0.105,0.914
		c0.412,0.528,0.97,0.771,1.676,0.732c0.229-0.009,0.55-0.08,0.963-0.21c0.205-0.129,0.451-0.259,0.733-0.392
		c0.282-0.131,0.649-0.282,1.101-0.452c0.717-0.27,1.348-0.432,1.892-0.487c0.547-0.055,0.917,0.072,1.114,0.377
		c0.198,0.305,0.301,0.469,0.308,0.49c0.155,0.397-0.092,0.718-0.745,0.963c-0.246,0.093-0.557,0.18-0.938,0.261
		c-0.382,0.08-0.629,0.141-0.741,0.184c-0.674,0.254-1.14,0.67-1.404,1.25c-0.261,0.581-0.3,1.111-0.109,1.597
		c0.311,0.794,0.678,1.3,1.098,1.522c0.419,0.22,0.889,0.232,1.403,0.039c0.494-0.187,0.999-0.515,1.511-0.986
		c0.247-0.219,0.628-0.63,1.143-1.226c0.752-0.841,1.334-1.72,1.75-2.635C107.656,38.26,107.805,37.849,107.963,37.333z
		 M109.896,27.348l-3.334,1.258l5.504,14.087l-2.269-0.662l-0.89-2.282c-0.226,0.542-0.438,0.961-0.628,1.261
		c-0.617,0.991-1.344,1.797-2.184,2.418c-0.359,0.261-0.744,0.467-1.146,0.621c-0.808,0.304-1.676,0.429-2.597,0.372
		c-0.924-0.056-1.729-0.315-2.409-0.779c-0.685-0.462-1.133-0.97-1.348-1.522c-0.216-0.55-0.212-1.134,0.011-1.75
		c0.073-0.205,0.219-0.462,0.43-0.769c-0.359-0.067-0.642-0.138-0.854-0.21c-0.67-0.201-1.234-0.43-1.697-0.688
		c-0.938-0.557-1.51-1.099-1.718-1.628c-0.223-0.573-0.063-1.125,0.473-1.658c0.169-0.164,0.473-0.379,0.907-0.646l3.704-1.396
		l-0.763-1.951l-6.431,2.423l-1.885-1.263l17.238-6.5L109.896,27.348z M86.33,35.661l-0.579,0.29
		c-0.12-0.074-0.212-0.146-0.275-0.221c-0.271-0.21-0.554-0.386-0.843-0.531c-0.413-0.168-0.809-0.272-1.196-0.318
		c-0.388-0.044-0.786-0.044-1.192,0c-0.409,0.048-0.73,0.129-0.967,0.246c-0.236,0.118-0.409,0.205-0.515,0.259l-1.334-1.48
		c0.151-0.076,0.332-0.159,0.54-0.249c0.208-0.093,0.547-0.15,1.023-0.174c0.473-0.025,0.97,0.028,1.499,0.162
		c0.346,0.093,0.825,0.27,1.446,0.527c0.621,0.259,1.277,0.64,1.969,1.143C86.005,35.398,86.146,35.513,86.33,35.661z
		 M88.287,34.681l-0.609,0.305c-0.336-0.284-0.586-0.503-0.748-0.662c-0.54-0.471-0.936-0.789-1.182-0.956
		c-0.995-0.668-1.676-1.097-2.043-1.284c-0.918-0.468-1.789-0.695-2.618-0.678c-0.44,0.036-0.903,0.108-1.383,0.215
		c-0.142,0.044-0.328,0.099-0.564,0.164l-1.499-1.716c0.151-0.074,0.412-0.194,0.79-0.354c0.374-0.161,0.945-0.189,1.718-0.083
		c0.77,0.104,1.676,0.438,2.724,1.002c0.938,0.508,1.947,1.184,3.03,2.02c0.691,0.502,1.352,1.046,1.979,1.633
		C87.991,34.391,88.125,34.521,88.287,34.681z M91.255,34.705l-3.027,1.649l7.43,13.168l-2.321-0.315l-6.749-11.96l-1.923,1.048
		l-2.042-0.993l6.622-3.605L91.255,34.705z M84.467,38.314l-2.936,1.803l8.122,12.768l-2.336-0.194L79.94,41.094l-1.862,1.145
		l-2.096-0.888l6.421-3.94L84.467,38.314z M79.146,41.399l-4.932,3.392l2.857,4.006c0.232,0.328,0.486,0.602,0.755,0.819
		c0.805,0.629,1.676,0.781,2.614,0.451c0.311-0.099,0.614-0.249,0.91-0.453c0.61-0.42,1.063-1.02,1.358-1.799
		c0.092-0.236,0.173-0.58,0.236-1.026l1.238,1.741l-2.886,8.3l-1.873-0.455l2.148-5.398c-0.459,0.057-0.822,0.103-1.087,0.141
		c-0.882,0.086-1.605,0.08-2.173-0.02c-0.367-0.063-0.886-0.234-1.553-0.51c-0.667-0.277-1.098-0.55-1.291-0.822L72.68,45.85
		l-1.534,1.057l-2.11-0.799l8.006-5.505L79.146,41.399z M60.949,55.601l-2.533,2.318L68.87,68.93l-2.332,0.247l-9.49-10
		l-1.609,1.473l-2.229-0.477l5.539-5.073L60.949,55.601z M62.795,66.332c-0.117,0.494-0.219,0.876-0.3,1.152
		c-0.279,0.889-0.59,1.529-0.938,1.921c-0.773,0.873-1.511,1.51-2.216,1.911c-0.702,0.4-1.591,0.61-2.664,0.635
		c-0.631-0.007-1.436-0.194-2.416-0.563c-0.297-0.131-0.73-0.327-1.292-0.589c0.12-0.176,0.244-0.369,0.367-0.577
		c0.12-0.21,0.223-0.434,0.307-0.674c0.399-1.099,0.59-1.898,0.572-2.399c-0.018-0.503-0.208-0.907-0.572-1.217
		c-0.398-0.342-0.924-0.522-1.573-0.545c-0.204-0.02-0.49,0.018-0.86,0.109l-2.649,2.995l-2.266-0.247l7.024-7.939l2.219,0.298
		l-3.429,3.877c0.324,0.028,0.575,0.053,0.748,0.074c0.635,0.074,1.161,0.173,1.577,0.295c0.42,0.122,0.744,0.282,0.98,0.483
		c0.346,0.294,0.571,0.668,0.681,1.122c0.109,0.454,0.106,0.959-0.007,1.519c-0.113,0.561-0.35,1.296-0.713,2.208
		c-0.057,0.139-0.13,0.311-0.219,0.517c0.35,0.111,0.636,0.184,0.861,0.217c0.688,0.088,1.313-0.005,1.869-0.279
		c0.562-0.273,1.023-0.614,1.387-1.025c0.409-0.462,0.734-1.028,0.978-1.699c0.099-0.291,0.215-0.683,0.35-1.178
		c0.138-0.494,0.236-1.013,0.3-1.552c0.01-0.085,0.018-0.237,0.018-0.454L62.795,66.332z M48.842,68.125l-2.181,2.643L58.6,80.265
		l-2.3,0.54L45.482,72.2l-1.315,1.597l-2.251-0.196l2.36-2.863c-0.681-0.3-1.245-0.534-1.693-0.707
		c-1.313-0.469-2.529-0.783-3.651-0.944c-1.118-0.162-1.944,0.078-2.474,0.72c-0.438,0.533-0.497,1.167-0.18,1.909
		c0.089,0.192,0.216,0.384,0.385,0.577c0.162,0.192,0.331,0.356,0.501,0.49c0.409,0.328,0.882,0.581,1.411,0.76
		c0.162,0.067,0.409,0.125,0.737,0.175l-0.522,0.635c-0.455-0.122-0.818-0.228-1.083-0.318c-0.889-0.311-1.612-0.689-2.173-1.136
		c-0.505-0.4-0.907-0.872-1.203-1.411c-0.47-0.893-0.335-1.787,0.405-2.687c0.516-0.625,1.193-0.979,2.039-1.067
		c0.745-0.076,1.634,0.007,2.668,0.254c0.825,0.201,1.683,0.473,2.575,0.817c0.656,0.217,1.291,0.496,1.908,0.834
		c0.216,0.113,0.501,0.277,0.847,0.494l1.817-2.203L48.842,68.125z M44.309,73.83l-2.036,2.75l12.397,8.85l-2.24,0.677
		l-11.258-8.037l-1.295,1.748l-2.279-0.051l4.452-6.019L44.309,73.83z M44.46,82.019l-2.597,4.417
		c-0.271,0.556-0.431,0.997-0.483,1.321c-0.116,0.999,0.317,1.774,1.295,2.33c0.709,0.4,1.534,0.658,2.479,0.773
		c0.949,0.113,1.951,0.118,3.014,0.01c0.639-0.046,1.097-0.099,1.383-0.157c0.12-0.014,0.278-0.046,0.477-0.099l0.211,0.981
		l-3.93,0.388c-1.094,0.062-2.092,0.026-2.999-0.106c-0.91-0.132-1.687-0.383-2.328-0.748c-1.334-0.755-1.916-1.822-1.743-3.198
		c0.07-0.45,0.289-1.062,0.66-1.835l2.938-4.999L44.46,82.019z M40.286,79.487l-5.535,9.418l-2.272,0.183l5.515-9.388L40.286,79.487
		z M32.32,91.229c0.247-0.005,0.37,0.099,0.363,0.31c0.007,0.191-0.099,0.309-0.317,0.358c-0.085,0.007-0.181-0.03-0.286-0.111
		c-0.105-0.083-0.151-0.161-0.141-0.234C31.971,91.299,32.094,91.191,32.32,91.229z M33.65,90.36l-1.965,4.142l4.607,2.109
		c0.274,0.205,0.49,0.369,0.642,0.491c0.473,0.398,0.808,0.787,1.002,1.162c0.293,0.552,0.47,1.193,0.519,1.919
		c0.004,0.104,0.007,0.265,0.015,0.475l7.651-2.122l0.293,1.157l-7.489,2.189c-0.66,0.219-1.179,0.358-1.556,0.421
		c-1.144,0.233-1.986,0.222-2.533-0.026c-0.24-0.109-0.417-0.277-0.537-0.501c-0.119-0.224-0.127-0.443-0.027-0.656
		c0.112-0.236,0.438-0.511,0.97-0.827c0.532-0.314,0.812-0.521,0.829-0.616c0.078-0.277-0.039-0.617-0.35-1.021
		c-0.102-0.123-0.261-0.289-0.483-0.494l-4.346-1.992l-2.329,4.911l-2.232,0.347l5.087-10.723L33.65,90.36z M28.774,100.965
		l-1.298,3.152l14.21,5.64l-2.007,1.19l-12.905-5.123l-0.822,2.004l-2.227,0.492l2.837-6.897L28.774,100.965z M25.578,108.581
		l-0.952,3.269l14.729,4.149l-1.866,1.39l-13.381-3.77l-0.607,2.078l-2.159,0.718l2.089-7.151L25.578,108.581z M25.37,122.378
		l-2.519-0.617c-0.607-0.15-1.076-0.143-1.415,0.018s-0.554,0.423-0.649,0.79c-0.099,0.39-0.011,0.734,0.261,1.032
		c0.272,0.298,0.649,0.506,1.14,0.626c0.445,0.109,0.868,0.103,1.271-0.018c0.564-0.178,1.051-0.533,1.457-1.067
		C25.035,122.977,25.183,122.723,25.37,122.378z M32.102,116.067l-1.439,5.671l0.98,0.24c0.226,0.081,0.385,0.143,0.47,0.189
		c0.3,0.196,0.409,0.441,0.335,0.739c-0.096,0.367-0.59,0.829-1.482,1.39c-0.769,0.469-1.403,0.799-1.897,0.995
		c-0.216,0.069-0.398,0.085-0.54,0.051c-0.212-0.051-0.346-0.231-0.392-0.534c0-0.097-0.011-0.247-0.035-0.448l0.314-1.236
		l-2.227-0.545c-0.18,0.418-0.339,0.745-0.473,0.979c-0.857,1.422-1.93,2.217-3.231,2.385c-0.279,0.03-0.572,0.005-0.875-0.067
		c-0.695-0.171-1.238-0.554-1.634-1.15c-0.388-0.595-0.479-1.306-0.271-2.129c0.042-0.16,0.077-0.303,0.109-0.428
		c0.032-0.125,0.134-0.327,0.3-0.602c0.473-0.785,1.252-1.265,2.336-1.438c0.359-0.056,0.871-0.065,1.531-0.024l4.896,1.198
		l1.439-5.671L32.102,116.067z M23.994,114.045l-0.995,3.918l-2.134,0.792l0.994-3.92L23.994,114.045z"/>
	<path fill-rule="evenodd" clip-rule="evenodd" fill="#F0801A" d="M276.804,149.51l-2.868,3.165l3.098,3.098l2.995-3.115
		L276.804,149.51z M278.05,152.588l-0.988,1.078l-1.037-1.037l0.998-1.086L278.05,152.588z"/>
	<path fill-rule="evenodd" clip-rule="evenodd" fill="#F0801A" d="M281.056,145.257l-2.001,2.133l-1.03-0.969l-0.991,1.143
		l4.347,4.071l3.017-3.254L281.056,145.257z M282.305,148.519l-0.896,1.009l-1.153-1.154l0.906-1.016L282.305,148.519z"/>
	<polygon fill-rule="evenodd" clip-rule="evenodd" fill="#F0801A" points="274.952,149.699 272.778,151.964 269.61,148.937 
		273.657,144.567 274.814,145.561 271.784,148.912 272.688,149.838 273.819,148.683 	"/>
	<polygon fill-rule="evenodd" clip-rule="evenodd" fill="#F0801A" points="275.784,150.74 269.427,144.707 272.362,141.516 
		276.871,145.515 275.806,146.626 272.387,143.55 271.413,144.661 276.847,149.514 	"/>
	<polygon fill-rule="evenodd" clip-rule="evenodd" fill="#F0801A" points="274.744,147.734 281.01,141.008 284.361,144.035 
		277.862,150.832 276.663,149.653 282.025,144.06 281.03,143.158 275.876,148.866 	"/>
	<polygon fill-rule="evenodd" clip-rule="evenodd" fill="#F0801A" points="280.152,146.533 273.587,140.246 276.709,137.148 
		280.036,140.337 275.738,144.822 274.469,143.643 277.796,140.383 276.709,139.39 275.714,140.368 281.218,145.284 	"/>
	<polygon fill-rule="evenodd" clip-rule="evenodd" fill="#F0801A" points="275.777,142.355 276.974,143.53 278.05,142.449 
		276.779,141.313 	"/>
	<path fill-rule="evenodd" clip-rule="evenodd" fill="#F0801A" d="M25.486,148.298l-2.868,3.163l3.101,3.1l2.996-3.117
		L25.486,148.298z M26.735,151.375l-0.988,1.08l-1.037-1.039l0.995-1.085L26.735,151.375z"/>
	<path fill-rule="evenodd" clip-rule="evenodd" fill="#F0801A" d="M29.741,144.043l-2.004,2.133l-1.026-0.967l-0.992,1.143
		l4.347,4.07l3.017-3.255L29.741,144.043z M30.99,147.307l-0.896,1.009l-1.157-1.154l0.91-1.016L30.99,147.307z"/>
	<polygon fill-rule="evenodd" clip-rule="evenodd" fill="#F0801A" points="23.638,148.487 21.465,150.752 18.297,147.723 
		22.343,143.354 23.497,144.349 20.47,147.7 21.373,148.625 22.505,147.469 	"/>
	<polygon fill-rule="evenodd" clip-rule="evenodd" fill="#F0801A" points="24.471,149.526 18.113,143.493 21.048,140.304 
		25.557,144.303 24.491,145.413 21.069,142.338 20.1,143.447 25.532,148.302 	"/>
	<polygon fill-rule="evenodd" clip-rule="evenodd" fill="#F0801A" points="23.43,146.522 29.691,139.794 33.043,142.823 
		26.549,149.62 25.346,148.441 30.708,142.846 29.717,141.944 24.563,147.654 	"/>
	<polygon fill-rule="evenodd" clip-rule="evenodd" fill="#F0801A" points="28.838,145.319 22.272,139.032 25.395,135.935 
		28.722,139.125 24.421,143.61 23.15,142.431 26.478,139.171 25.395,138.177 24.399,139.156 29.9,144.072 	"/>
	<polygon fill-rule="evenodd" clip-rule="evenodd" fill="#F0801A" points="24.463,141.142 25.659,142.318 26.735,141.237 
		25.462,140.1 	"/>
	<circle fill="none" stroke="#178045" stroke-width="0.8406" stroke-miterlimit="22.9256" cx="150.447" cy="150.402" r="143.938"/>
	<path fill="#215E87" d="M193.241,237.273l-1.507,0.653l2.879,6.671l-1.08-0.259l-2.613-6.061l-0.96,0.415l-0.917-0.572l3.299-1.423
		L193.241,237.273z M192.769,241.927l-2.868,1.065l0.208,0.561c0.031,0.084,0.049,0.171,0.06,0.259
		c0.007,0.088-0.031,0.166-0.116,0.235c-0.166,0.136-0.551,0.058-1.15-0.229c-0.6-0.29-0.928-0.513-0.987-0.674
		c-0.035-0.095-0.018-0.194,0.056-0.293c0.025-0.023,0.067-0.062,0.12-0.118l0.671-0.249l-1.076-2.904l-1.489,0.554l-0.889-0.619
		l5.179-1.921l0.89,0.619l-2.854,1.058l1.076,2.902l2.868-1.063L192.769,241.927z M186.729,239.842l-1.538,0.572l2.529,6.814
		l-1.065-0.315l-2.297-6.188l-0.978,0.362l-0.885-0.619l3.365-1.249L186.729,239.842z M183.06,245.439l-1.246-3.981l-1.827,0.57
		l0.335,1.078c0.015,0.042,0.039,0.125,0.078,0.244c0.038,0.122,0.042,0.228,0.011,0.319c-0.032,0.093-0.124,0.184-0.275,0.266
		c-0.025,0.007-0.053,0.021-0.096,0.046l-1.976,0.618c-0.105,0.07-0.187,0.125-0.232,0.164c-0.148,0.141-0.173,0.286-0.078,0.436
		c0.177,0.267,0.435,0.402,0.77,0.404c0.109,0.002,0.265-0.021,0.462-0.072c0.103-0.055,0.223-0.111,0.359-0.166
		c0.138-0.055,0.314-0.117,0.533-0.186c0.35-0.107,0.652-0.167,0.914-0.176c0.257-0.011,0.43,0.062,0.515,0.215
		c0.081,0.153,0.127,0.234,0.131,0.245c0.06,0.196-0.067,0.344-0.381,0.443c-0.12,0.037-0.272,0.069-0.455,0.097
		c-0.184,0.027-0.3,0.05-0.356,0.065c-0.325,0.103-0.562,0.29-0.702,0.559c-0.142,0.272-0.177,0.527-0.103,0.768
		c0.123,0.392,0.282,0.647,0.473,0.766c0.194,0.118,0.416,0.139,0.663,0.062c0.24-0.074,0.491-0.219,0.745-0.429
		c0.123-0.101,0.317-0.286,0.578-0.557c0.385-0.383,0.688-0.789,0.91-1.217C182.883,245.875,182.968,245.683,183.06,245.439z
		 M184.28,240.687l-1.616,0.504l2.17,6.954l-1.052-0.388l-0.353-1.127c-0.123,0.254-0.236,0.452-0.335,0.589
		c-0.321,0.458-0.691,0.826-1.108,1.099c-0.176,0.115-0.366,0.203-0.561,0.265c-0.392,0.122-0.808,0.157-1.242,0.101
		c-0.434-0.053-0.808-0.203-1.114-0.448c-0.311-0.244-0.509-0.503-0.593-0.772c-0.085-0.273-0.063-0.554,0.06-0.843
		c0.043-0.097,0.116-0.217,0.229-0.358c-0.169-0.044-0.3-0.086-0.398-0.127c-0.311-0.116-0.571-0.245-0.783-0.383
		c-0.427-0.296-0.681-0.575-0.762-0.836c-0.089-0.282,0.003-0.543,0.274-0.785c0.085-0.074,0.233-0.167,0.448-0.284l1.796-0.559
		l-0.3-0.965l-3.119,0.976l-0.854-0.667l8.357-2.609L184.28,240.687z M176.945,242.917l-1.591,0.406l1.799,7.04l-1.023-0.425
		l-1.637-6.395l-1.009,0.258l-0.818-0.708l3.479-0.891L176.945,242.917z M175.475,246.774c-0.258-0.238-0.477-0.409-0.66-0.512
		c-0.568-0.328-1.125-0.438-1.672-0.328c-0.103,0.02-0.181,0.035-0.236,0.048c-0.424,0.132-0.752,0.351-0.975,0.66
		c-0.222,0.311-0.293,0.663-0.211,1.069c0.081,0.406,0.236,0.685,0.465,0.838c0.227,0.153,0.516,0.194,0.861,0.125
		c0.268-0.053,0.561-0.182,0.882-0.387c0.317-0.203,0.614-0.448,0.882-0.735c0.173-0.185,0.336-0.376,0.494-0.57
		C175.354,246.926,175.41,246.857,175.475,246.774z M175.816,247.614c-0.123,0.304-0.247,0.531-0.367,0.683
		c-0.37,0.482-0.867,0.785-1.492,0.911c-0.649,0.128-1.306,0.009-1.965-0.364c-0.663-0.374-1.059-0.873-1.182-1.498
		c-0.064-0.536,0.073-0.999,0.401-1.39s0.794-0.647,1.397-0.769c0.67-0.134,1.369,0.051,2.1,0.556
		c0.243,0.161,0.539,0.427,0.893,0.797L175.816,247.614z M174.917,243.573l-5.229,1.049l-0.763-0.755l5.197-1.042L174.917,243.573z
		 M172.091,242.488c-0.236-0.254-0.441-0.453-0.606-0.594c-0.533-0.45-1.084-0.782-1.648-0.993
		c-0.176-0.071-0.359-0.111-0.547-0.125c-0.19-0.014-0.401,0-0.635,0.049c-0.469,0.094-0.822,0.319-1.051,0.681
		c-0.142,0.213-0.233,0.432-0.269,0.654c-0.039,0.224-0.035,0.441,0.007,0.653c0.061,0.302,0.198,0.6,0.409,0.894
		c0.063,0.094,0.163,0.207,0.293,0.342l1.426-0.286l0.762,0.755l-1.608,0.323l1.432,7.143l-1.005-0.496l-1.299-6.472l-1.022,0.207
		l-0.763-0.755l1.761-0.354c-0.223-0.176-0.392-0.326-0.508-0.453c-0.37-0.392-0.597-0.789-0.678-1.192
		c-0.07-0.356-0.042-0.702,0.089-1.038c0.13-0.333,0.328-0.6,0.589-0.797c0.265-0.198,0.578-0.335,0.949-0.41
		c0.501-0.101,0.977-0.062,1.418,0.117c0.54,0.207,1.107,0.533,1.697,0.984c0.18,0.139,0.409,0.337,0.694,0.593L172.091,242.488z
		 M161.249,245.166l-0.392,0.042c-0.088-0.186-0.158-0.332-0.204-0.441c-0.166-0.35-0.335-0.641-0.508-0.874
		c-0.244-0.315-0.452-0.557-0.632-0.721c-0.219-0.192-0.455-0.339-0.72-0.436c-0.145-0.063-0.286-0.097-0.424-0.099
		s-0.292,0.007-0.462,0.025l-0.586-1.087c0.191-0.033,0.364-0.041,0.522-0.024c0.155,0.018,0.356,0.081,0.597,0.192
		c0.338,0.157,0.648,0.371,0.931,0.637c0.233,0.226,0.526,0.583,0.875,1.072c0.269,0.337,0.544,0.782,0.822,1.335
		C161.115,244.887,161.176,245.012,161.249,245.166z M163.13,245.7l-1.634,0.182l0.805,7.222l-0.96-0.564l-0.727-6.559l-1.037,0.115
		l-0.709-0.815l3.566-0.399L163.13,245.7z M160.936,248.228l-2.448,0.271c-0.293,0.056-0.509,0.12-0.649,0.192
		c-0.42,0.242-0.604,0.629-0.543,1.162c0.045,0.385,0.176,0.774,0.398,1.168c0.222,0.395,0.501,0.78,0.843,1.154
		c0.198,0.231,0.346,0.392,0.448,0.483c0.039,0.042,0.096,0.094,0.173,0.155l-0.321,0.36l-1.256-1.39
		c-0.331-0.399-0.6-0.791-0.805-1.175c-0.2-0.387-0.324-0.753-0.363-1.104c-0.081-0.725,0.174-1.252,0.756-1.581
		c0.193-0.102,0.493-0.194,0.899-0.271l2.77-0.309L160.936,248.228z M160.745,245.908l-5.218,0.58l-0.709-0.815l5.199-0.579
		L160.745,245.908z M156.512,246.335l-1.638,0.097l0.424,7.253l-0.925-0.614l-0.388-6.588l-1.041,0.06l-0.667-0.852l3.585-0.208
		L156.512,246.335z M150.8,248.145l-0.007-1.231c0-0.296-0.061-0.513-0.174-0.649c-0.116-0.136-0.264-0.203-0.444-0.201
		c-0.197,0-0.346,0.081-0.451,0.242c-0.109,0.161-0.162,0.36-0.159,0.6c0,0.215,0.053,0.409,0.155,0.579
		c0.148,0.24,0.374,0.42,0.671,0.545C150.482,248.062,150.619,248.101,150.8,248.145z M154.543,250.482l-2.819,0.018v0.478
		c-0.011,0.114-0.021,0.194-0.031,0.24c-0.057,0.161-0.159,0.24-0.308,0.242c-0.183,0-0.458-0.173-0.825-0.515
		c-0.307-0.296-0.536-0.549-0.685-0.753c-0.06-0.09-0.088-0.173-0.088-0.242c-0.004-0.102,0.066-0.185,0.201-0.243
		c0.046-0.012,0.116-0.035,0.208-0.071l0.614-0.003l-0.008-1.088c-0.215-0.032-0.388-0.065-0.512-0.099
		c-0.765-0.224-1.263-0.623-1.495-1.2c-0.046-0.125-0.071-0.263-0.071-0.411c-0.003-0.339,0.113-0.635,0.346-0.888
		c0.233-0.25,0.551-0.375,0.964-0.379c0.077,0,0.147-0.002,0.215-0.002c0.061,0,0.166,0.021,0.314,0.067
		c0.423,0.122,0.737,0.422,0.945,0.9c0.07,0.161,0.134,0.393,0.194,0.7l0.014,2.394l2.822-0.016L154.543,250.482z M154.535,246.515
		l-1.947,0.012l-0.624-0.887l1.951-0.011L154.535,246.515z M148.81,246.446l-1.641,0.01l0.043,7.268l-0.893-0.661l-0.039-6.601
		l-1.044,0.007l-0.621-0.887l3.592-0.021L148.81,246.446z M146.718,249.426c-0.085-0.119-0.159-0.21-0.223-0.272
		c-0.204-0.196-0.42-0.302-0.648-0.316c-0.135-0.007-0.286,0.021-0.452,0.083c-0.162,0.065-0.324,0.171-0.483,0.321
		c-0.204,0.192-0.469,0.501-0.794,0.926c-0.099,0.131-0.232,0.311-0.395,0.54l-0.685-0.54l0.621-0.852
		c-0.148-0.192-0.265-0.33-0.353-0.417c-0.279-0.293-0.52-0.444-0.724-0.457c-0.967-0.063-1.481,0.374-1.542,1.307
		c-0.028,0.466,0.099,0.965,0.385,1.498c0.031,0.071,0.254,0.409,0.674,1.02c0.116,0.155,0.324,0.42,0.632,0.794
		c0.046,0.048,0.109,0.122,0.193,0.219l-0.346,0.319c-0.3-0.349-0.525-0.626-0.685-0.831c-0.476-0.601-0.811-1.063-1.009-1.384
		c-0.257-0.427-0.444-0.836-0.554-1.226c-0.113-0.39-0.158-0.727-0.141-1.011c0.031-0.478,0.193-0.852,0.49-1.125
		c0.296-0.271,0.557-0.415,0.783-0.431c0.222-0.014,0.385-0.018,0.486-0.012c0.48,0.032,0.96,0.279,1.443,0.745
		c0.162,0.146,0.353,0.377,0.575,0.686c0.173-0.238,0.32-0.411,0.444-0.519c0.374-0.342,0.744-0.501,1.107-0.478
		c0.343,0.023,0.685,0.205,1.03,0.545c0.053,0.049,0.12,0.129,0.205,0.238L146.718,249.426z M146.608,246.575l-6.81-0.436
		l-0.574-0.928l6.809,0.436L146.608,246.575z M136.204,245.765l-1.788-0.303l-1.221,7.183l-0.763-0.826l1.108-6.506l-0.978-0.166
		l-0.44-0.978l1.834,0.313c-0.014-0.372-0.039-0.672-0.07-0.898c-0.092-0.674-0.247-1.252-0.459-1.734
		c-0.215-0.481-0.532-0.759-0.959-0.831c-0.36-0.062-0.649,0.063-0.865,0.374c-0.127,0.198-0.208,0.415-0.25,0.651
		c-0.05,0.304-0.035,0.6,0.042,0.891c0.015,0.049,0.039,0.111,0.071,0.187l-0.389-0.067c-0.057-0.217-0.095-0.392-0.12-0.522
		c-0.074-0.441-0.081-0.831-0.024-1.168c0.053-0.303,0.155-0.58,0.314-0.831c0.281-0.427,0.681-0.595,1.195-0.506
		c0.304,0.049,0.575,0.194,0.812,0.434c0.109,0.109,0.194,0.215,0.258,0.324c0.014,0.037,0.042,0.09,0.074,0.164
		c0.066-0.122,0.13-0.209,0.187-0.266c0.17-0.184,0.343-0.277,0.522-0.284c0.184-0.007,0.3-0.007,0.356,0.002
		c0.271,0.046,0.532,0.211,0.783,0.498c0.077,0.095,0.173,0.233,0.293,0.415l-0.198,0.139c-0.038-0.041-0.074-0.07-0.105-0.086
		c-0.194-0.138-0.378-0.221-0.547-0.25c-0.046-0.007-0.127-0.009-0.243-0.005c-0.223,0.03-0.409,0.161-0.551,0.392
		c-0.046,0.072-0.103,0.19-0.166,0.353c0.057,0.16,0.092,0.288,0.109,0.384c0.092,0.339,0.148,0.619,0.17,0.843
		c0.035,0.19,0.074,0.51,0.116,0.956c0.011,0.129,0.028,0.3,0.05,0.512l1.383,0.234L136.204,245.765z M133.104,245.31l-1.616-0.275
		l-1.221,7.165l-0.762-0.806l1.104-6.507l-1.027-0.174l-0.458-0.981l3.542,0.603L133.104,245.31z M128.785,245.079
		c0.066-0.288,0.046-0.568-0.057-0.836c-0.138-0.333-0.381-0.542-0.737-0.621c-0.088-0.02-0.208-0.032-0.359-0.037
		c-0.152-0.003-0.321,0.085-0.509,0.271c-0.187,0.186-0.311,0.418-0.374,0.695c-0.073,0.323-0.049,0.585,0.067,0.787
		c0.099,0.198,0.3,0.395,0.604,0.591c0.095,0.057,0.232,0.134,0.423,0.236c0.184-0.101,0.321-0.185,0.406-0.259
		C128.538,245.667,128.715,245.391,128.785,245.079z M130.214,249.413c-0.261,0.071-0.47,0.117-0.628,0.14
		c-0.536,0.102-0.914,0.141-1.129,0.114c-0.215-0.024-0.385-0.051-0.508-0.078c-0.389-0.088-0.752-0.263-1.091-0.525
		c-0.338-0.265-0.596-0.547-0.775-0.85c-0.177-0.302-0.325-0.647-0.448-1.038c-0.021-0.063-0.046-0.145-0.07-0.243l0.906-0.201
		c0.275-0.078,0.543-0.169,0.814-0.271c0.039-0.014,0.096-0.037,0.174-0.067c-0.12-0.037-0.223-0.079-0.308-0.12
		c-0.229-0.122-0.458-0.288-0.685-0.496c-0.229-0.21-0.384-0.452-0.469-0.727c-0.085-0.277-0.099-0.538-0.046-0.781
		c0.067-0.29,0.204-0.527,0.416-0.713c0.212-0.188,0.466-0.309,0.766-0.363c0.297-0.057,0.586-0.053,0.864,0.009
		c0.389,0.088,0.699,0.245,0.928,0.473c0.547,0.531,0.745,1.131,0.597,1.798c-0.103,0.457-0.381,0.861-0.836,1.215
		c-0.346,0.249-0.844,0.488-1.489,0.716c-0.215,0.069-0.508,0.155-0.882,0.258c0.103,0.21,0.197,0.367,0.278,0.467
		c0.275,0.34,0.601,0.554,0.978,0.639c0.124,0.028,0.254,0.039,0.396,0.037c0.652,0.005,1.27-0.09,1.852-0.286
		c0.191-0.062,0.41-0.161,0.66-0.291L130.214,249.413z M126.467,244.172l-1.587-0.417l-1.839,7.031l-0.691-0.87l1.669-6.385
		l-1.009-0.265l-0.37-1.016l3.475,0.91L126.467,244.172z M120.138,246.945l1.267-3.976l-1.827-0.58l-0.339,1.076
		c-0.014,0.044-0.042,0.125-0.077,0.246c-0.039,0.12-0.099,0.208-0.177,0.266s-0.205,0.08-0.377,0.06
		c-0.021-0.007-0.057-0.012-0.103-0.016l-1.973-0.626c-0.13-0.007-0.226-0.007-0.285-0.003c-0.205,0.033-0.308,0.137-0.317,0.314
		c-0.008,0.321,0.127,0.579,0.401,0.772c0.085,0.063,0.226,0.132,0.417,0.207c0.116,0.012,0.246,0.035,0.392,0.07
		c0.145,0.034,0.324,0.085,0.543,0.154c0.35,0.111,0.632,0.236,0.851,0.377c0.215,0.141,0.317,0.3,0.296,0.473
		c-0.018,0.173-0.028,0.265-0.035,0.275c-0.06,0.196-0.251,0.244-0.564,0.145c-0.12-0.039-0.261-0.099-0.427-0.182
		c-0.166-0.083-0.275-0.132-0.328-0.15c-0.328-0.102-0.625-0.084-0.896,0.057c-0.275,0.141-0.448,0.33-0.521,0.568
		c-0.127,0.392-0.146,0.691-0.057,0.9c0.092,0.208,0.261,0.351,0.512,0.43c0.236,0.076,0.525,0.101,0.854,0.076
		c0.158-0.009,0.423-0.051,0.794-0.125c0.532-0.093,1.016-0.252,1.442-0.475C119.746,247.203,119.923,247.094,120.138,246.945z
		 M123.863,243.754l-1.612-0.515l-2.208,6.943l-0.643-0.922l0.36-1.124c-0.247,0.136-0.452,0.233-0.614,0.289
		c-0.525,0.19-1.041,0.279-1.538,0.265c-0.212-0.009-0.416-0.044-0.61-0.106c-0.392-0.124-0.751-0.333-1.076-0.628
		c-0.324-0.296-0.543-0.631-0.656-1.009c-0.112-0.376-0.127-0.702-0.038-0.972c0.084-0.271,0.265-0.49,0.528-0.658
		c0.092-0.055,0.223-0.108,0.396-0.161c-0.116-0.132-0.201-0.244-0.254-0.332c-0.187-0.277-0.328-0.531-0.423-0.764
		c-0.181-0.487-0.227-0.863-0.146-1.122c0.092-0.282,0.317-0.445,0.678-0.485c0.109-0.012,0.286-0.003,0.529,0.025l1.792,0.571
		l0.304-0.961l-3.112-0.992l-0.317-1.034l8.344,2.655L123.863,243.754z M116.466,241.542l-1.538-0.579l-2.562,6.8l-0.597-0.937
		l2.328-6.177l-0.977-0.367l-0.262-1.049l3.359,1.267L116.466,241.542z M112.959,243.692c-0.089-0.338-0.188-0.6-0.286-0.785
		c-0.307-0.579-0.724-0.967-1.242-1.165c-0.099-0.035-0.173-0.062-0.226-0.083c-0.434-0.115-0.825-0.101-1.175,0.042
		c-0.356,0.145-0.604,0.408-0.748,0.794c-0.147,0.388-0.162,0.708-0.049,0.956c0.109,0.252,0.331,0.439,0.663,0.564
		c0.258,0.097,0.575,0.143,0.952,0.14c0.378-0.004,0.759-0.055,1.137-0.155c0.247-0.067,0.486-0.14,0.723-0.221
		C112.778,243.758,112.863,243.728,112.959,243.692z M112.807,244.585c-0.265,0.192-0.49,0.319-0.674,0.385
		c-0.567,0.212-1.149,0.207-1.75-0.02c-0.617-0.233-1.107-0.683-1.471-1.349c-0.363-0.669-0.434-1.3-0.208-1.898
		c0.229-0.483,0.589-0.806,1.076-0.965c0.486-0.157,1.016-0.127,1.591,0.09c0.643,0.241,1.136,0.769,1.488,1.582
		c0.12,0.265,0.229,0.649,0.332,1.15L112.807,244.585z M114.187,240.682l-4.992-1.88l-0.247-1.044l4.961,1.87L114.187,240.682z
		 M193.601,244.499l2.918,0.727l-0.938,0.416l-1.634-0.347L193.601,244.499z M112.775,238.505c-0.05-0.344-0.103-0.623-0.159-0.834
		c-0.176-0.676-0.438-1.261-0.779-1.76c-0.103-0.157-0.229-0.296-0.374-0.417c-0.148-0.12-0.332-0.228-0.551-0.325
		c-0.438-0.192-0.854-0.206-1.248-0.044c-0.24,0.093-0.441,0.222-0.601,0.384c-0.155,0.159-0.278,0.339-0.366,0.538
		c-0.124,0.282-0.184,0.605-0.181,0.967c0,0.111,0.018,0.261,0.046,0.448l1.334,0.583l0.19,1.055l-1.503-0.66l-2.925,6.673
		l-0.54-0.982l2.65-6.047l-0.957-0.418l-0.19-1.053l1.645,0.72c-0.081-0.271-0.134-0.494-0.155-0.667
		c-0.081-0.533-0.035-0.986,0.127-1.362c0.148-0.333,0.37-0.6,0.67-0.799c0.297-0.199,0.61-0.305,0.938-0.316
		c0.328-0.012,0.667,0.057,1.013,0.208c0.47,0.206,0.833,0.51,1.094,0.908c0.324,0.48,0.6,1.072,0.825,1.782
		c0.067,0.215,0.146,0.511,0.229,0.884L112.775,238.505z"/>
	<path fill-rule="evenodd" clip-rule="evenodd" fill="#0F669C" d="M145.438,234.92c0.589-3.009,0.162-5.407-1.186-8.527
		c10.047-4.119,28.276-0.287,42.617-1.841c1.023,0,2.688-0.351,2.929-1.002l4.516-34.189c-0.269-0.833-0.646-1.579-1.133-2.246
		l-4.339,0.349c0.081,10.759-3.126,21.773-5.316,32.537c-12.715,0.508-26.354-2.311-38.148,1.528
		c-0.332-1.528,0.152-3.189,1.189-4.939c14.785-4.95,21.411,1.916,32.982-2.314c2.509-10.027,4.597-19.935,6.266-29.727
		c-8.234,3.136-18.434-2.057-26.149,4.177l-15.921,28.136c-1.08,1.891-1.616,4.089-1.465,6.549
		C142.988,228.288,145.311,230.145,145.438,234.92"/>
	<path fill-rule="evenodd" clip-rule="evenodd" fill="#0F669C" d="M142.992,234.476c0.074-4.614-1.527-6.013-1.774-8.474
		c-11.444-4.352-23.358,0.103-33.749-1.475c-0.677-0.924-0.896-1.799-0.906-2.649l26.329-31.736
		c6.23,1.124,16.603-6.349,24.597-0.82l-15.692,27.908c-9.409-5.729-22.278,1.568-29.183-0.614
		c-0.533,1.207-1.069,2.221-0.776,3.971c8.972,0.631,19.478-3.036,29.219,0.753C141.655,226.023,144.022,230.113,142.992,234.476"/>
	<path fill="#FFFFFF" d="M133.467,209.344c0.97,0.423,1.954,0.157,2.932-0.799c0.98-0.963,1.99-2.643,3.027-5.038
		c1.026-2.342,1.552-4.184,1.576-5.53c0.025-1.348-0.455-2.233-1.429-2.657c-0.966-0.423-1.94-0.152-2.921,0.815
		c-0.978,0.961-1.993,2.644-3.048,5.042c-1.009,2.341-1.528,4.182-1.556,5.525C132.023,208.041,132.496,208.923,133.467,209.344
		 M133.216,209.914c-1.485-0.649-2.381-1.868-2.691-3.664c-0.307-1.794,0.028-3.817,1.013-6.079
		c0.987-2.263,2.243-3.897,3.768-4.895c1.527-0.999,3.034-1.171,4.52-0.526c1.488,0.649,2.385,1.87,2.691,3.667
		c0.304,1.795-0.035,3.828-1.022,6.091c-0.984,2.261-2.237,3.886-3.758,4.883C136.211,210.389,134.709,210.563,133.216,209.914z"/>
	<path fill="#FFFFFF" d="M175.016,194.448l-0.184,2.034l-3.391-0.302c-0.519,2.11-0.86,4.149-1.037,6.112
		c-0.085,0.965,0.021,1.67,0.321,2.111c0.304,0.446,0.698,0.695,1.206,0.739c0.402,0.035,0.763-0.072,1.091-0.328
		c0.32-0.256,0.55-0.644,0.685-1.169l0.486,0.044c-0.289,1.466-0.737,2.473-1.334,3.032c-0.603,0.558-1.245,0.81-1.926,0.75
		c-0.73-0.065-1.306-0.454-1.732-1.159c-0.43-0.707-0.561-1.968-0.398-3.782c0.103-1.14,0.469-3.302,1.111-6.486l-3.648-0.323
		c-0.723,4.875-1.351,7.939-1.876,9.205c-0.526,1.261-1.15,1.861-1.87,1.797c-0.335-0.03-0.604-0.169-0.805-0.409
		c-0.197-0.245-0.282-0.536-0.254-0.872c0.021-0.245,0.078-0.452,0.166-0.623c0.127-0.235,0.377-0.554,0.751-0.965
		c0.639-0.706,1.104-1.464,1.404-2.277c0.529-1.387,0.971-3.373,1.323-5.96l-0.646-0.058c-0.681-0.06-1.203,0.009-1.56,0.205
		c-0.571,0.286-1.118,0.802-1.637,1.547l-0.547-0.048c0.67-1.571,1.379-2.633,2.138-3.188c0.571-0.421,1.345-0.589,2.308-0.502
		L175.016,194.448z"/>
	<path fill="none" stroke="#215E87" stroke-width="0.3136" stroke-miterlimit="22.9256" d="M151.675,87.956h-1.535h-2.19v4.791
		c-1.553,0.217-3.023,0.607-4.445,1.168l-2.505-4.232l-3.888,2.332l2.505,4.144c-1.253,0.951-2.329,2.073-3.281,3.325l-4.142-2.461
		l-2.29,3.884l4.188,2.503c-0.561,1.339-0.948,2.809-1.167,4.361h-4.834v4.533h4.834c0.219,1.512,0.606,2.937,1.167,4.318
		l-4.229,2.503l2.289,3.884l4.185-2.459c0.952,1.208,2.074,2.288,3.281,3.237l-2.505,4.23l3.888,2.332l2.547-4.317
		c1.38,0.604,2.851,0.993,4.36,1.165v4.879h2.233h1.365h1.179v-4.879c1.514-0.171,2.98-0.561,4.36-1.165l2.547,4.317l3.888-2.332
		l-2.504-4.23c1.21-0.949,2.332-2.029,3.28-3.237l4.188,2.459l2.289-3.884l-4.233-2.503c0.564-1.381,0.952-2.807,1.168-4.318h4.833
		v-4.533h-4.833c-0.216-1.552-0.604-3.022-1.168-4.361l4.188-2.503l-2.286-3.884l-4.146,2.461c-0.948-1.252-2.028-2.375-3.28-3.325
		l2.504-4.144l-3.888-2.332l-2.501,4.232c-1.426-0.561-2.893-0.951-4.449-1.168v-4.791H151.675z"/>
</g>
</svg>
